HIERARCHY
ROOT hip
{
	OFFSET 0.000000 0.000000 0.000000 
	CHANNELS 6 Xposition Yposition Zposition Xrotation Zrotation Yrotation
	JOINT abdomen
	{
		OFFSET 0.000000 3.402643 0.000000 
		CHANNELS 3 Xrotation Zrotation Yrotation
		JOINT chest
		{
			OFFSET 0.000000 8.438565 -0.680529 
			CHANNELS 3 Xrotation Zrotation Yrotation
			JOINT neck
			{
				OFFSET 0.000000 10.207942 -0.272212 
				CHANNELS 3 Xrotation Zrotation Yrotation
				JOINT head
				{
					OFFSET 0.000000 3.130431 0.000000 
					CHANNELS 3 Xrotation Zrotation Yrotation
					End Site
					{
						OFFSET 0.000000 3.130435 0.000000 
					}
				}
			}
			JOINT lCollar
			{
				OFFSET 3.470700 6.669187 -0.816635 
				CHANNELS 3 Yrotation Zrotation Xrotation
				JOINT lShldr
				{
					OFFSET 3.198488 0.000000 0.000000 
					CHANNELS 3 Zrotation Yrotation Xrotation
					JOINT lForeArm
					{
						OFFSET 10.139888 0.000000 0.000000 
						CHANNELS 3 Yrotation Zrotation Xrotation
						JOINT lHand
						{
							OFFSET 8.370511 0.000000 0.000000 
							CHANNELS 3 Zrotation Yrotation Xrotation
							End Site
							{
								OFFSET 4.083176 0.000000 0.000000 
							}
						}
					}
				}
			}
			JOINT rCollar
			{
				OFFSET -3.470700 6.669187 -0.816635 
				CHANNELS 3 Yrotation Zrotation Xrotation
				JOINT rShldr
				{
					OFFSET -3.198488 0.000000 0.000000 
					CHANNELS 3 Zrotation Yrotation Xrotation
					JOINT rForeArm
					{
						OFFSET -10.139888 0.000000 0.000000 
						CHANNELS 3 Yrotation Zrotation Xrotation
						JOINT rHand
						{
							OFFSET -8.370511 0.000000 0.000000 
							CHANNELS 3 Zrotation Yrotation Xrotation
							End Site
							{
								OFFSET -4.083176 0.000000 0.000000 
							}
						}
					}
				}
			}
		}
	}
	JOINT lThigh
	{
		OFFSET 5.308129 -1.633274 1.361059 
		CHANNELS 3 Xrotation Zrotation Yrotation
		JOINT lShin
		{
			OFFSET -2.041588 -20.007561 0.000000 
			CHANNELS 3 Xrotation Zrotation Yrotation
			JOINT lFoot
			{
				OFFSET 0.000000 -19.190928 -1.224953 
				CHANNELS 3 Xrotation Yrotation Zrotation
				End Site
				{
					OFFSET 0.000000 -2.449906 4.627600 
				}
			}
		}
	}
	JOINT rThigh
	{
		OFFSET -5.308129 -1.633274 1.361059 
		CHANNELS 3 Xrotation Zrotation Yrotation
		JOINT rShin
		{
			OFFSET 2.041588 -20.007561 0.000000 
			CHANNELS 3 Xrotation Zrotation Yrotation
			JOINT rFoot
			{
				OFFSET 0.000000 -19.190928 -1.224953 
				CHANNELS 3 Xrotation Yrotation Zrotation
				End Site
				{
					OFFSET 0.000000 -2.449906 4.627600 
				}
			}
		}
	}
}
MOTION
Frames: 10
Frame Time: 0.016667
0.805320 52.061832 -1.303336 -10.102381 3.201411 9.106394 23.668222 -0.648414 -1.823878 4.077321 1.483730 -2.529742 -1.872903 5.276873 -0.373441 8.127850 -4.808645 4.615312 -18.880646 -12.631893 -0.660294 -59.603802 10.835459 -20.250736 -24.431477 -5.000000 25.621956 -18.815096 0.168810 9.827913 18.298120 17.010406 -0.904103 56.664471 -5.393387 -13.915023 23.302097 5.000000 13.654970 11.271579 -28.851259 9.723748 12.304524 10.692630 -1.137917 8.065876 -5.399700 -0.978868 -10.932645 4.118213 -3.574683 21.432528 -8.310260 -10.513097 -0.302462 2.787644 0.019068 -8.783059 -16.581181 5.870436 
0.800862 52.066334 -1.336889 -10.186410 3.192463 9.027847 23.736887 -0.625700 -1.771984 4.012115 1.434972 -2.432110 -1.862700 5.209284 -0.363223 8.179074 -4.789243 4.605582 -18.949118 -12.641645 -0.660797 -59.582336 10.948689 -20.299852 -24.252466 -5.000000 25.480078 -18.678368 0.210915 9.590734 18.268017 16.961649 -0.901583 56.799408 -5.375350 -13.847154 23.484734 5.000000 13.750681 11.421925 -28.861443 9.583002 12.249641 10.698040 -1.077356 8.249910 -5.420560 -1.054281 -10.830290 4.132380 -3.591609 21.448120 -8.328326 -10.578353 -0.330832 2.804315 0.026672 -8.615881 -16.494007 5.814421 
0.808916 52.071774 -1.380823 -10.248616 3.173259 9.018096 23.804718 -0.564897 -1.737005 3.975143 1.386184 -2.392821 -1.872040 5.141695 -0.353005 8.201841 -4.779705 4.576389 -19.029202 -12.628711 -0.669303 -59.582329 11.015272 -20.329552 -24.072897 -5.000000 25.405579 -18.591560 0.277838 9.430678 18.247046 16.873888 -0.897041 56.939663 -5.362439 -13.822374 23.673508 5.000000 13.781805 11.538494 -28.886570 9.486938 12.168312 10.702824 -1.057861 8.437522 -5.400327 -1.069916 -10.768163 4.143188 -3.599187 21.439037 -8.329193 -10.648400 -0.292855 2.847773 0.028209 -8.483333 -16.457859 5.752754 
0.830016 52.078373 -1.435591 -10.300366 3.134170 9.076595 23.852530 -0.484229 -1.725995 3.947162 1.347143 -2.383064 -1.892017 5.072646 -0.352405 8.197746 -4.770359 4.517188 -19.116854 -12.609191 -0.668292 -59.594917 11.030136 -20.342960 -23.882248 -5.000000 25.413406 -18.555914 0.359669 9.350676 18.225447 16.747116 -0.890478 57.095993 -5.373660 -13.840064 23.870947 5.000000 13.770376 11.613323 -28.901457 9.429446 12.038840 10.701010 -1.112031 8.626438 -5.357476 -1.063775 -10.749651 4.077981 -3.566694 21.373035 -8.339162 -10.730188 -0.185311 2.885880 0.024455 -8.333447 -16.422621 5.809494 
0.862754 52.084316 -1.500078 -10.342932 3.085279 9.154068 23.909426 -0.380122 -1.695277 3.918721 1.308089 -2.402598 -1.911253 5.024369 -0.345106 8.203452 -4.770804 4.448255 -19.204391 -12.579922 -0.666778 -59.611263 11.026851 -20.333534 -23.704941 -5.000000 25.432619 -18.521749 0.441749 9.301663 18.203865 16.620348 -0.883911 57.252289 -5.376615 -13.863202 24.072014 5.000000 13.749351 11.680732 -28.921856 9.365281 11.899995 10.709106 -1.172912 8.814334 -5.331450 -1.068246 -10.735710 3.998995 -3.573019 21.288845 -8.339950 -10.789276 -0.056486 2.910196 0.002759 -8.203445 -16.418949 5.848711 
0.907457 52.088047 -1.574146 -10.360607 2.987626 9.300332 23.964640 -0.206191 -1.658436 3.880372 1.259261 -2.441659 -1.979612 5.024369 -0.345106 8.212418 -4.771491 4.341207 -19.301113 -12.501892 -0.662748 -59.690811 10.947527 -20.239656 -23.529709 -5.000000 25.493282 -18.564486 0.514384 9.403119 18.161995 16.444824 -0.872046 57.423298 -5.414456 -13.910392 24.307007 5.000000 13.669915 11.658786 -28.912918 9.298113 11.693481 10.746738 -1.290094 8.986796 -5.290706 -1.061223 -10.677890 3.884607 -3.576406 21.114014 -8.328346 -10.855767 0.156200 2.955735 0.034629 -8.063356 -16.405413 5.993999 
0.965723 52.091686 -1.660103 -10.381498 2.870685 9.455365 24.029684 -0.023318 -1.617725 3.841866 1.210429 -2.490483 -2.048030 5.034024 -0.346566 8.210895 -4.781899 4.233347 -19.397726 -12.414108 -0.658214 -59.765106 10.853840 -20.118971 -23.363743 -5.000000 25.568605 -18.628971 0.584604 9.547556 18.110239 16.259546 -0.862461 57.594265 -5.460318 -13.951766 24.542133 5.000000 13.591807 11.614369 -28.895460 9.218919 11.483666 10.800105 -1.416057 9.183747 -5.243084 -1.065000 -10.649879 3.719945 -3.614427 20.921230 -8.308939 -10.938845 0.381005 2.984638 0.068573 -7.916590 -16.462849 6.147968 
1.037006 52.098614 -1.758779 -10.396918 2.772605 9.669936 24.124584 0.147705 -1.623573 3.822177 1.181115 -2.578366 -2.146537 5.032563 -0.356185 8.174580 -4.733852 4.124681 -19.494123 -12.306820 -0.652671 -59.844368 10.706368 -19.940445 -23.210018 -5.000000 25.635963 -18.693441 0.624053 9.815231 18.068138 16.064514 -0.852362 57.736633 -5.496562 -14.002080 24.772625 5.000000 13.496633 11.538899 -28.838808 9.114208 11.228160 10.798302 -1.560898 9.368377 -5.172371 -1.085838 -10.587011 3.617020 -3.590079 20.715538 -8.318305 -11.019633 0.652813 2.996990 0.085407 -7.757332 -16.516005 6.380476 
1.121297 52.108078 -1.869356 -10.409099 2.683829 9.933288 24.249289 0.302952 -1.666527 3.801236 1.181072 -2.695539 -2.264512 5.021448 -0.364344 8.102667 -4.656662 3.997365 -19.570997 -12.199536 -0.647126 -59.897945 10.497226 -19.681244 -23.057114 -5.000000 25.703796 -18.787329 0.641496 10.215347 18.035841 15.869482 -0.839583 57.870758 -5.531855 -14.064171 24.998205 5.000000 13.400084 11.421107 -28.741907 8.983620 10.961700 10.776205 -1.748703 9.519567 -5.118327 -1.104266 -10.488991 3.472876 -3.521679 20.472963 -8.338549 -11.132584 0.995817 3.034775 0.106995 -7.621222 -16.615816 6.610525 
1.219168 52.123177 -1.997935 -10.400823 2.604748 10.196214 24.374081 0.445260 -1.703833 3.790061 1.181028 -2.812712 -2.392313 5.019987 -0.373963 8.019860 -4.579370 3.878995 -19.667412 -12.092249 -0.639532 -59.940109 10.273907 -19.408085 -22.915472 -5.000000 25.780014 -18.884920 0.651570 10.649263 17.993818 15.674451 -0.829497 57.984524 -5.566530 -14.117333 25.226311 5.000000 13.284741 11.309842 -28.634785 8.842331 10.699502 10.747488 -1.938124 9.656268 -5.047833 -1.101211 -10.402402 3.263622 -3.517128 20.222263 -8.398300 -11.245166 1.345453 3.078599 0.129363 -7.499487 -16.696684 6.816844 
